<svg width="246" height="82" viewBox="0 0 246 82" fill="none" xmlns="http://www.w3.org/2000/svg">
<path d="M53.1141 33.9444C51.209 31.7619 48.9951 30.0991 46.4207 28.9559C43.8463 27.8127 41.1174 27.2411 38.2341 27.2411C36.535 27.2411 34.8874 27.5009 33.2913 28.0206C31.6951 28.5402 30.2535 29.2157 28.9148 29.9952C27.5761 30.7746 26.3919 31.7099 25.3106 32.7492C24.2294 33.7885 23.3026 34.7758 22.5818 35.815H22.0154V14.614L22.8392 2.24676L21.449 0.84375L0.647949 5.52045V7.18327L6.46608 12.1717V72.6051C7.90774 74.3198 9.55535 75.7229 11.5119 76.8661C13.4684 78.0092 15.4765 78.8926 17.6389 79.5681C19.7499 80.2437 21.9124 80.7113 24.0234 81.0231C26.1859 81.3349 28.194 81.4908 30.099 81.4908C34.7329 81.4908 38.8519 80.7633 42.4561 79.3083C46.0602 77.8533 49.1495 75.8787 51.6209 73.2806C54.1438 70.7344 55.9974 67.6685 57.3361 64.187C58.6233 60.6535 59.2926 56.8602 59.2926 52.7551C59.2926 48.7019 58.7263 45.0645 57.645 41.8948C56.5123 38.777 55.0191 36.1268 53.1141 33.9444ZM39.7272 71.8256C37.7192 75.2032 34.7329 76.8661 30.7169 76.8661C29.7901 76.8661 28.9148 76.7102 27.988 76.4503C27.0612 76.1386 26.2374 75.6709 25.4651 74.9954C24.6928 74.3198 23.972 73.4365 23.4056 72.2933C22.7877 71.1501 22.3243 69.7471 22.0154 68.0323V41.479C22.4788 40.8555 22.9937 40.128 23.663 39.4525C24.2809 38.725 25.0532 38.0495 25.877 37.4779C26.7008 36.8543 27.6276 36.3866 28.6059 35.9709C29.5841 35.5552 30.6654 35.3993 31.8496 35.3993C33.4457 35.3993 34.8874 35.815 36.2261 36.6465C37.5647 37.4779 38.6975 38.725 39.6758 40.4398C40.654 42.1546 41.3748 44.337 41.9412 46.9352C42.5076 49.5853 42.765 52.6512 42.765 56.2366C42.765 63.2517 41.7353 68.448 39.7272 71.8256Z" fill="white"/>
<path d="M107.794 45.2217C107.742 42.6235 107.382 40.1813 106.816 37.9468C106.249 35.7124 105.271 33.8417 103.881 32.2309C102.491 30.62 100.637 29.4249 98.3201 28.5415C96.0031 27.6581 93.0683 27.1904 89.5157 27.1904C87.1987 27.1904 84.9848 27.3983 82.8223 27.866C80.6598 28.3336 78.5488 28.9572 76.4893 29.7366C74.4812 30.5161 72.5762 31.5034 70.7741 32.5946C68.972 33.6858 67.3244 34.881 65.8313 36.1801L68.7146 40.4411C69.5384 39.8175 70.5167 39.142 71.5979 38.5704C72.6792 37.9468 73.8119 37.4272 74.9961 36.9595C76.1803 36.4919 77.416 36.1281 78.7032 35.8163C79.9904 35.5565 81.2261 35.4006 82.4104 35.4006C85.9115 35.4006 88.4344 36.284 89.9276 37.9988C91.4207 39.7136 92.193 42.2078 92.193 45.3776V51.0935C88.3315 51.4573 84.5728 52.0808 81.0717 53.0162C77.519 53.9515 74.4297 55.2506 71.7009 56.8615C69.0235 58.4723 66.861 60.395 65.2649 62.5774C63.6688 64.8119 62.845 67.3581 62.845 70.216C62.845 72.0348 63.2054 73.6456 63.8747 75.0486C64.5441 76.4516 65.4709 77.6468 66.7066 78.5821C67.8908 79.5694 69.3324 80.2969 70.9801 80.8165C72.6277 81.3362 74.4297 81.596 76.3863 81.596C79.5785 81.596 82.5648 80.8685 85.3967 79.4655C88.2285 78.0105 90.6999 76.1399 92.7594 73.8535L94.51 81.648L113.303 77.6468V76.0359L107.794 69.1768V45.2217ZM92.2445 69.3846C91.3178 70.32 90.185 71.1514 88.8463 71.9308C87.5077 72.7103 85.963 73.126 84.2124 73.126C82.3074 73.126 80.8142 72.5544 79.733 71.4632C78.6517 70.3719 78.1369 68.6052 78.1369 66.2668C78.1369 64.8119 78.4458 63.4608 79.1151 62.2657C79.7845 61.0705 80.7113 60.0312 81.947 59.0959C83.1827 58.2125 84.6758 57.485 86.4264 56.9134C88.177 56.3418 90.082 55.9261 92.2445 55.7183V69.3846Z" fill="white"/>
<path d="M157.123 54.8839C155.579 53.4809 153.88 52.2858 151.975 51.2465C150.07 50.2072 148.165 49.168 146.208 48.2326C144.509 47.4012 142.964 46.6218 141.523 45.8423C140.081 45.0629 138.897 44.2315 137.867 43.4C136.837 42.5686 136.013 41.5813 135.447 40.5421C134.881 39.5028 134.572 38.3076 134.572 37.0086C134.572 35.3977 135.19 34.1506 136.374 33.2672C137.609 32.3838 139.463 31.9162 141.934 31.9162C142.81 31.9162 143.582 31.9681 144.251 32.0201C144.921 32.124 145.487 32.176 145.951 32.2279C147.083 33.2152 148.37 34.6182 149.812 36.385C151.254 38.1518 152.901 40.3342 154.703 42.8804H156.66L159.028 29.9416C157.947 29.5258 156.763 29.1621 155.476 28.8503C154.189 28.5385 152.798 28.2268 151.408 27.9669C150.018 27.7071 148.628 27.4993 147.186 27.3954C145.796 27.2395 144.457 27.1875 143.17 27.1875C139.978 27.1875 137.043 27.4993 134.366 28.1228C131.688 28.7464 129.423 29.6817 127.466 30.9289C125.561 32.176 124.068 33.7349 122.987 35.6575C121.906 37.5282 121.391 39.7626 121.391 42.3088C121.391 44.7511 121.854 46.8816 122.729 48.7003C123.605 50.519 124.84 52.0779 126.282 53.4809C127.775 54.8839 129.474 56.0791 131.379 57.1183C133.284 58.1576 135.241 59.1969 137.301 60.1322C138.845 60.8597 140.338 61.6391 141.831 62.3666C143.273 63.0941 144.56 63.9255 145.642 64.8089C146.723 65.6923 147.598 66.6276 148.267 67.6669C148.937 68.7062 149.246 69.8493 149.246 71.1484C149.246 74.9417 146.105 76.8124 139.875 76.8124C138.794 76.8124 137.867 76.7605 137.043 76.6046C136.219 76.4487 135.704 76.3448 135.447 76.2408C134.726 75.5133 133.902 74.6819 133.027 73.6946C132.152 72.7073 131.276 71.6681 130.401 70.5249C129.526 69.3817 128.651 68.2385 127.827 67.0953C127.003 65.9521 126.231 64.8089 125.51 63.7177H123.296L120.258 77.6438C121.288 78.2154 122.524 78.7351 123.914 79.2027C125.304 79.6704 126.849 80.0861 128.445 80.3979C130.041 80.7616 131.791 81.0215 133.542 81.1773C135.344 81.3852 137.146 81.4372 139 81.4372C142.295 81.4372 145.384 81.1254 148.216 80.4499C151.048 79.7743 153.468 78.787 155.579 77.436C157.638 76.0849 159.286 74.4741 160.419 72.4995C161.603 70.5249 162.169 68.2385 162.169 65.6923C162.169 63.3539 161.706 61.2754 160.728 59.5087C159.904 57.8458 158.668 56.235 157.123 54.8839Z" fill="white"/>
<path d="M185.596 53.016H218.549C218.6 49.4305 218.085 46.1049 217.056 42.9351C216.026 39.8173 214.533 37.0632 212.576 34.7249C210.62 32.3866 208.2 30.5678 205.368 29.2168C202.536 27.8657 199.292 27.2422 195.688 27.2422C191.826 27.2422 188.274 27.9177 185.082 29.2688C181.838 30.6198 179.109 32.5424 176.792 35.0367C174.475 37.5309 172.724 40.4928 171.437 43.9224C170.15 47.4039 169.532 51.1973 169.532 55.3543C169.532 59.1996 170.099 62.7331 171.283 65.9548C172.467 69.1766 174.115 71.9306 176.226 74.217C178.388 76.5034 180.963 78.3221 184.052 79.6212C187.09 80.9203 190.539 81.5438 194.298 81.5438C197.027 81.5438 199.498 81.232 201.764 80.6085C203.978 79.9849 206.037 79.1535 207.891 78.0623C209.744 76.971 211.443 75.7239 212.936 74.217C214.481 72.71 215.923 71.0992 217.261 69.3844L214.069 65.8509C213.348 66.5784 212.576 67.3578 211.752 68.1893C210.928 69.0207 209.95 69.8001 208.92 70.5276C207.891 71.2551 206.758 71.8267 205.471 72.2943C204.184 72.762 202.793 72.9699 201.249 72.9699C199.086 72.9699 197.078 72.5022 195.225 71.6188C193.371 70.7354 191.775 69.4883 190.385 67.8255C188.995 66.1627 187.862 64.1361 187.038 61.7458C186.214 59.3555 185.699 56.6014 185.493 53.5876C185.493 53.4836 185.493 53.3797 185.545 53.3278C185.596 53.1719 185.596 53.1199 185.596 53.016ZM186.472 41.636C186.987 39.4536 187.656 37.6348 188.48 36.2318C189.304 34.7769 190.282 33.7376 191.415 33.0621C192.547 32.3866 193.732 32.0228 194.967 32.0228C196.203 32.0228 197.336 32.2826 198.314 32.8023C199.292 33.3219 200.167 34.2053 200.837 35.4524C201.506 36.6995 202.073 38.3623 202.433 40.4409C202.793 42.5194 202.999 46.2607 202.999 49.4305H185.596C185.699 46.4166 185.957 43.8185 186.472 41.636Z" fill="white"/>
<path d="M234.657 19.2916V8.27539H229.406V19.2916H218.748V24.436H229.406V35.5041H234.657V24.436H245.264V19.2916H234.657Z" fill="white"/>
</svg>
