<svg xmlns="http://www.w3.org/2000/svg" width="250" height="200" xmlns:v="https://vecta.io/nano"><defs><filter id="A" color-interpolation-filters="auto"><feColorMatrix in="SourceGraphic" values="0 0 0 0 0.968627 0 0 0 0 0.952941 0 0 0 0 0.941176 0 0 0 1.000000 0"/></filter></defs><g fill="none" fill-rule="evenodd"><g fill="#1488a9"><path fill-opacity=".4" d="M70.657 35.618l18.686 10.828a8.35 8.35 0 0 1 4.157 7.226v21.656a8.35 8.35 0 0 1-4.157 7.226L70.657 93.382a8.29 8.29 0 0 1-8.314 0L43.657 82.554a8.35 8.35 0 0 1-4.157-7.226V53.672a8.35 8.35 0 0 1 4.157-7.226l18.686-10.828a8.29 8.29 0 0 1 8.314 0z"/><path d="M70.041 39.469l15.918 9.384c2.191 1.292 3.541 3.679 3.541 6.263v18.768c0 2.584-1.35 4.971-3.541 6.263l-15.918 9.384c-2.191 1.292-4.891 1.292-7.082 0l-15.918-9.384c-2.191-1.292-3.541-3.679-3.541-6.263V55.116c0-2.584 1.35-4.971 3.541-6.263l15.918-9.384c2.191-1.292 4.891-1.292 7.082 0z"/></g><path d="M57.593 56.385c-5.11 3.512-6.737 10.421-3.584 15.882 3.146 5.45 9.922 7.498 15.512 4.854.881-.462.631-.895.391-1.31l-2.341-4.054-2.896-5.015-3.206-5.553-2.568-4.448c-.25-.433-.5-.866-1.308-.356zm13.35-7.349l3.746 6.489h0l4.453 7.712 3.307 5.727a.4.4 0 0 1-.458.584L66.857 65.16a.6.6 0 0 1-.416-.72l3.767-15.301a.4.4 0 0 1 .735-.104z" fill="#f7f3f0"/><g filter="url(#A)" transform="translate(38.5 104)"><path fill="#2a2725" fill-rule="nonzero" d="M8.509 27.74c4.509 0 7.293-2.664 8.077-8.737h-4.313c-.471 3.291-1.529 4.78-3.764 4.78-2.666 0-3.96-2.429-3.96-8.189v-3.448c0-5.838 1.294-8.189 3.96-8.189 2.157 0 3.333 1.489 3.764 4.78h4.313C15.841 2.86 12.861 0 8.509 0 3.49 0 0 3.644 0 12.146v3.448C0 24.096 3.49 27.74 8.509 27.74zm14.28-.353l1.372-5.603h7.254l1.412 5.603h4.823L30.043.353h-4.47l-7.568 27.035h4.784zm7.646-9.521h-5.254l2.666-10.657 2.588 10.657zm14.817 9.521V11.637l4.47 10.54h3.019l4.431-10.657v15.868h4.548V.353h-4.47l-6.038 15.28L45.135.353h-4.431v27.035h4.548zm29.585 0c5.842 0 8.077-3.683 8.077-7.758 0-3.409-1.333-5.524-3.647-6.386 1.764-.862 2.941-3.095 2.941-5.877 0-4.662-2.862-7.013-8.077-7.013h-7.372v27.035h8.077zm-.639-15.986h-2.902V4.271h2.431c3.254 0 3.921 1.254 3.921 3.37 0 2.233-.941 3.761-3.451 3.761zm.274 12.068h-3.176v-8.15h2.745c3.019 0 4.313 1.215 4.313 4.075 0 2.586-1.176 4.075-3.882 4.075zm17.252 3.918V16.417h3.411l3.999 10.971h4.941l-4.588-11.754c2.431-1.097 3.843-3.487 3.843-7.209 0-5.368-3.176-8.071-8.273-8.071h-7.881v27.035h4.548zm2.86-14.889h-2.902V4.271h2.902c2.745 0 4.156 1.097 4.156 4.153s-1.412 4.075-4.156 4.075zm18.193 14.889V.353h-4.537v27.035h4.537zm12.988 0c4.98 0 8.509-3.252 8.509-11.911v-3.213c0-8.659-3.529-11.911-8.509-11.911h-7.803v27.035h7.803zm.064-3.918h-3.254V4.271h3.254c2.98 0 3.96 2.429 3.96 7.993v3.213c0 5.564-.98 7.993-3.96 7.993zm20.062 4.271c4.98 0 8.117-3.409 8.117-12.146v-2.077h-8.038v3.957h3.686c-.157 4.349-1.294 6.308-3.764 6.308-2.666 0-3.96-2.351-3.96-8.189v-3.448c0-5.838 1.294-8.189 3.96-8.189 2.235 0 3.372 1.646 3.764 4.78h4.313C153.303 3.056 150.479 0 145.892 0c-5.019 0-8.509 3.644-8.509 12.342v3.252c0 8.502 3.49 12.146 8.509 12.146zm25.219-.353v-3.918h-9.113v-8.11h8.143v-3.918h-8.143V4.31h9.113V.353H157.5v27.035h13.611zM5.197 60.971v-6.935l2.902-5.093 5.607 12.028h5.058L11.157 44.75l6.234-10.814h-5.097L5.197 46.67V33.936H.648v27.035h4.548zm21.053 0V33.936h-4.537v27.035h4.537zm9.394 0V44.946l7.893 16.025h4.103V33.936h-4.532v16.26l-7.971-16.26h-4.024v27.035h4.532zm29.971 0v-3.918H56.4v-8.11h8.234v-3.918H56.4v-7.131h9.215v-3.957H51.852v27.035h13.763zm13.279 0V37.893h6.014v-3.957H68.38v3.957h6.014v23.077h4.501zm13.791 0V33.936h-4.537v27.035h4.537zm12.692.353c4.493 0 7.268-2.664 8.049-8.737h-4.298c-.469 3.291-1.524 4.78-3.751 4.78-2.657 0-3.946-2.429-3.946-8.189v-3.448c0-5.838 1.289-8.189 3.946-8.189 2.149 0 3.321 1.489 3.751 4.78h4.298c-.742-5.877-3.712-8.737-8.049-8.737-5.001 0-8.479 3.644-8.479 12.146v3.448c0 8.502 3.477 12.146 8.479 12.146zm18.831 0c5.257 0 7.69-3.722 7.69-7.758 0-4.662-2.119-6.778-6.748-8.071-2.943-.823-4.355-1.841-4.355-4.427 0-2.272 1.02-3.526 3.217-3.526 2.158 0 3.296 1.058 4.277 2.899l3.374-2.429c-1.648-3.017-4.237-4.427-7.768-4.427-5.297 0-7.651 3.409-7.651 7.483 0 4.584 2.354 6.974 6.631 8.189 3.61 1.019 4.473 2.351 4.473 4.506 0 1.959-.785 3.605-3.413 3.605-2.315 0-3.453-.98-4.747-2.899l-3.492 2.429c1.922 3.017 4.669 4.427 8.514 4.427z"/></g></g></svg>